<svg width="13" height="12" viewBox="0 0 13 12" fill="none" xmlns="http://www.w3.org/2000/svg">
<path d="M6.08704 11.2626C6.01496 11.2626 5.94468 11.2608 5.87621 11.2572C5.80773 11.2536 5.73745 11.2482 5.66538 11.241L5.35183 11.8303C5.3194 11.8915 5.27435 11.9366 5.21669 11.9654C5.16263 11.9942 5.09956 12.005 5.02748 11.9978C4.95901 11.9834 4.90134 11.9528 4.85449 11.9059C4.81124 11.8591 4.78602 11.7996 4.77881 11.7275L4.6815 11.0734C4.54816 11.0374 4.41481 10.9941 4.28147 10.9437C4.15173 10.8932 4.02198 10.841 3.89224 10.7869L3.40571 11.2248C3.35526 11.2716 3.29759 11.2987 3.23272 11.3059C3.17146 11.3167 3.10659 11.3041 3.03811 11.268C2.97685 11.232 2.9336 11.1834 2.90837 11.1221C2.88675 11.0644 2.88314 10.9995 2.89756 10.9275L3.03271 10.2842C2.92098 10.2049 2.80926 10.1202 2.69754 10.0301C2.58942 9.93999 2.48491 9.84629 2.384 9.74899L1.78394 9.99766C1.71547 10.0265 1.6506 10.0337 1.58933 10.0193C1.52807 10.0049 1.4722 9.96702 1.42175 9.90576C1.3749 9.8553 1.34967 9.79764 1.34607 9.73277C1.34246 9.6679 1.35868 9.60483 1.39472 9.54356L1.7461 8.98135C1.66682 8.86963 1.59294 8.7525 1.52446 8.62997C1.45599 8.50743 1.39112 8.3813 1.32985 8.25155L0.670331 8.28399C0.598252 8.28759 0.535183 8.27138 0.481124 8.23534C0.427066 8.1993 0.387422 8.14884 0.362195 8.08397C0.344175 8.0155 0.344175 7.95063 0.362195 7.88936C0.380214 7.82809 0.416254 7.77584 0.470313 7.73259L0.989278 7.32174C0.953239 7.1884 0.922606 7.05325 0.897378 6.9163C0.872151 6.77575 0.855933 6.63339 0.848725 6.48923L0.216236 6.28922C0.0720786 6.24236 0 6.14506 0 5.9973C0 5.84954 0.0720786 5.75043 0.216236 5.69997L0.848725 5.49995C0.855933 5.3558 0.872151 5.21524 0.897378 5.0783C0.922606 4.94135 0.953239 4.8062 0.989278 4.67285L0.470313 4.26201C0.416254 4.21876 0.378412 4.1683 0.356789 4.11064C0.338769 4.04937 0.340571 3.9845 0.362195 3.91603C0.387422 3.85116 0.427066 3.8007 0.481124 3.76466C0.535183 3.72862 0.598252 3.71241 0.670331 3.71601L1.32985 3.73763C1.39112 3.60789 1.45599 3.48356 1.52446 3.36463C1.59294 3.24209 1.66682 3.12316 1.7461 3.00784L1.39472 2.44563C1.35868 2.38796 1.34246 2.3285 1.34607 2.26723C1.34967 2.20236 1.3749 2.1447 1.42175 2.09424C1.4722 2.03298 1.52807 1.99513 1.58933 1.98072C1.6506 1.9663 1.71547 1.97351 1.78394 2.00234L2.384 2.24561C2.48491 2.1483 2.58942 2.0546 2.69754 1.9645C2.80926 1.8744 2.92098 1.78971 3.03271 1.71042L2.89756 1.07253C2.87954 0.996847 2.88314 0.930174 2.90837 0.872511C2.9336 0.811244 2.97685 0.764393 3.03811 0.731958C3.10298 0.695919 3.16785 0.681503 3.23272 0.688711C3.29759 0.695919 3.35526 0.72475 3.40571 0.775205L3.89224 1.20768C4.02198 1.15001 4.15173 1.09776 4.28147 1.05091C4.41481 1.00405 4.54816 0.960807 4.6815 0.921164L4.77881 0.272457C4.78602 0.200378 4.81124 0.140914 4.85449 0.0940625C4.90134 0.0472115 4.95901 0.0165781 5.02748 0.00216236C5.09956 -0.0050455 5.16443 0.00576629 5.22209 0.0345977C5.27976 0.0598252 5.323 0.103072 5.35183 0.164339L5.66538 0.753581C5.73745 0.749977 5.80773 0.746374 5.87621 0.74277C5.94468 0.739166 6.01496 0.737364 6.08704 0.737364C6.15911 0.737364 6.22759 0.739166 6.29246 0.74277C6.36093 0.746374 6.43301 0.749977 6.50869 0.753581L6.81683 0.164339C6.84566 0.103072 6.88891 0.0598252 6.94657 0.0345977C7.00423 0.00576629 7.06911 -0.0050455 7.14118 0.00216236C7.20966 0.0165781 7.26552 0.0472115 7.30877 0.0940625C7.35562 0.140914 7.38445 0.200378 7.39526 0.272457L7.48716 0.921164C7.62051 0.960807 7.75385 1.00405 7.8872 1.05091C8.02054 1.09776 8.15028 1.15001 8.27642 1.20768L8.76295 0.775205C8.81701 0.72475 8.87467 0.695919 8.93594 0.688711C9.00081 0.681503 9.06568 0.695919 9.13055 0.731958C9.19182 0.764393 9.23507 0.811244 9.26029 0.872511C9.28552 0.930174 9.28913 0.996847 9.27111 1.07253L9.13596 1.71042C9.24768 1.78971 9.3576 1.8744 9.46572 1.9645C9.57744 2.0546 9.68376 2.1483 9.78467 2.24561L10.3847 2.00234C10.4532 1.97351 10.5181 1.9663 10.5793 1.98072C10.6406 1.99513 10.6983 2.03298 10.7523 2.09424C10.7956 2.1447 10.819 2.20236 10.8226 2.26723C10.8262 2.3285 10.81 2.38796 10.7739 2.44563L10.4226 3.00784C10.5055 3.12316 10.5793 3.24209 10.6442 3.36463C10.7127 3.48356 10.7775 3.60789 10.8388 3.73763L11.5037 3.71601C11.5722 3.71241 11.6335 3.72862 11.6875 3.76466C11.7452 3.8007 11.7848 3.85116 11.8065 3.91603C11.8281 3.9845 11.8281 4.04937 11.8065 4.11064C11.7885 4.1683 11.7524 4.21876 11.6984 4.26201L11.1794 4.67285C11.2154 4.8062 11.2461 4.94135 11.2713 5.0783C11.3001 5.21524 11.3199 5.3576 11.3308 5.50536L11.9524 5.69997C12.0209 5.7252 12.075 5.76304 12.1146 5.8135C12.1542 5.86395 12.1741 5.92522 12.1741 5.9973C12.1741 6.06938 12.1542 6.13064 12.1146 6.1811C12.075 6.23155 12.0209 6.26759 11.9524 6.28922L11.3308 6.48923C11.3199 6.63339 11.3001 6.77575 11.2713 6.9163C11.2461 7.05325 11.2154 7.1884 11.1794 7.32174L11.6984 7.73259C11.7524 7.77584 11.7885 7.82809 11.8065 7.88936C11.8281 7.95063 11.8281 8.0155 11.8065 8.08397C11.7848 8.14884 11.7452 8.1993 11.6875 8.23534C11.6335 8.27138 11.5722 8.28759 11.5037 8.28399L10.8388 8.25155C10.7775 8.3813 10.7127 8.50743 10.6442 8.62997C10.5793 8.7525 10.5055 8.86963 10.4226 8.98135L10.7739 9.54356C10.8136 9.60483 10.8298 9.6679 10.8226 9.73277C10.819 9.79764 10.7956 9.8553 10.7523 9.90576C10.6983 9.96702 10.6406 10.0049 10.5793 10.0193C10.5181 10.0337 10.4532 10.0265 10.3847 9.99766L9.78467 9.74899C9.68376 9.84629 9.57744 9.93999 9.46572 10.0301C9.3576 10.1202 9.24768 10.2049 9.13596 10.2842L9.27111 10.9275C9.29994 11.0824 9.25309 11.196 9.13055 11.268C9.06568 11.3041 9.00081 11.3167 8.93594 11.3059C8.87107 11.2987 8.81341 11.2716 8.76295 11.2248L8.27642 10.7869C8.15028 10.841 8.02054 10.8932 7.8872 10.9437C7.75385 10.9941 7.62051 11.0374 7.48716 11.0734L7.39526 11.7275C7.38445 11.7996 7.35562 11.8591 7.30877 11.9059C7.26552 11.9528 7.21146 11.9834 7.14659 11.9978C7.07091 12.005 7.00423 11.9942 6.94657 11.9654C6.89251 11.9366 6.84927 11.8915 6.81683 11.8303L6.50869 11.241C6.43301 11.2482 6.36093 11.2536 6.29246 11.2572C6.22759 11.2608 6.15911 11.2626 6.08704 11.2626ZM6.08704 10.4463C6.70691 10.4463 7.28174 10.331 7.81151 10.1004C8.3449 9.87332 8.8098 9.55618 9.20623 9.14893C9.60627 8.74169 9.91801 8.26957 10.1415 7.73259C10.3649 7.1956 10.4766 6.61897 10.4766 6.0027C10.4766 5.38283 10.3649 4.8044 10.1415 4.26741C9.91801 3.73043 9.60627 3.25831 9.20623 2.85107C8.8098 2.44382 8.3449 2.12668 7.81151 1.89963C7.28174 1.66898 6.70691 1.55365 6.08704 1.55365C5.46716 1.55365 4.89053 1.66898 4.35715 1.89963C3.82737 2.12668 3.36247 2.44382 2.96243 2.85107C2.566 3.25831 2.25606 3.73043 2.03262 4.26741C1.80917 4.8044 1.69745 5.38283 1.69745 6.0027C1.69745 6.61897 1.80917 7.1956 2.03262 7.73259C2.25606 8.26957 2.566 8.74169 2.96243 9.14893C3.36247 9.55618 3.82737 9.87332 4.35715 10.1004C4.89053 10.331 5.46716 10.4463 6.08704 10.4463ZM5.141 5.11073L3.28678 1.94828L3.90846 1.5969L5.74106 4.73232L5.141 5.11073ZM7.3412 6.34327V5.64591H10.9848L10.9902 6.34327H7.3412ZM5.74646 7.27849L3.849 10.3923L3.23272 10.0301L5.15182 6.88927L5.74646 7.27849ZM6.07622 7.42445C5.81314 7.42445 5.57348 7.36138 5.35724 7.23525C5.14461 7.1055 4.97522 6.93432 4.84909 6.72169C4.72295 6.50545 4.65988 6.26759 4.65988 6.00811C4.65988 5.74502 4.72295 5.50716 4.84909 5.29453C4.97522 5.0783 5.14461 4.90711 5.35724 4.78097C5.57348 4.65483 5.81314 4.59176 6.07622 4.59176C6.33571 4.59176 6.57176 4.65483 6.7844 4.78097C7.00063 4.90711 7.17182 5.0783 7.29796 5.29453C7.42409 5.50716 7.48716 5.74502 7.48716 6.00811C7.48716 6.26759 7.42409 6.50545 7.29796 6.72169C7.17182 6.93432 7.00063 7.1055 6.7844 7.23525C6.57176 7.36138 6.33571 7.42445 6.07622 7.42445ZM6.07622 6.66222C6.26002 6.66222 6.41319 6.59915 6.53572 6.47302C6.66186 6.34688 6.72493 6.19191 6.72493 6.00811C6.72493 5.82431 6.66186 5.66934 6.53572 5.5432C6.41319 5.41706 6.26002 5.354 6.07622 5.354C5.88882 5.354 5.73205 5.41706 5.60591 5.5432C5.48338 5.66934 5.42211 5.82431 5.42211 6.00811C5.42211 6.19191 5.48338 6.34688 5.60591 6.47302C5.73205 6.59915 5.88882 6.66222 6.07622 6.66222Z" fill="white" fill-opacity="0.32"/>
</svg>
